# xmcd CD database file
#
# Track frame offsets:
#	150
#	8950
#	15680
#	27042
#	36430
#	49830
#	57790
#	65790
#	79495
#	91665
#	101420
#	112632
#	121467
#	131115
#	145352
#	157560
#	167780
#	179462
#	191470
#	202207
#
# Disc length: 2833 seconds
#
# Revision: 3
# Processed by: cddbd v1.5.2PL0 Copyright (c) Steve Scherf et al.
# Submitted via: CDex 2.09
#
DISCID=0f0b0f14
DTITLE=Willie Nelson - Essential
DYEAR=1900
DGENRE=Country
TTITLE0=The ghost
TTITLE1=Both ends of the candle
TTITLE2=Is there something on your mind
TTITLE3=Building heartaches
TTITLE4=Everything but you
TTITLE5=Half a man
TTITLE6=Thing to remember
TTITLE7=Home is where you're happy
TTITLE8=I can't find the time
TTITLE9=I didn't sleep a wink
TTITLE10=I'm going to lose a lot of teardrops
TTITLE11=Why are you picking on me
TTITLE12=Let's pretend
TTITLE13=Rainy day blues
TTITLE14=Shelter of my arms
TTITLE15=Broken promises
TTITLE16=The last letter
TTITLE17=Happiness lives next door
TTITLE18=Touch me
TTITLE19=Blame it on the times
EXTD=
EXTT0=
EXTT1=
EXTT2=
EXTT3=
EXTT4=
EXTT5=
EXTT6=
EXTT7=
EXTT8=
EXTT9=
EXTT10=
EXTT11=
EXTT12=
EXTT13=
EXTT14=
EXTT15=
EXTT16=
EXTT17=
EXTT18=
EXTT19=
PLAYORDER=
